<svg width="150" height="150" viewBox="0 0 150 150" fill="none" xmlns="http://www.w3.org/2000/svg">
<circle cx="75" cy="75" r="75" fill="#E2FFF0"/>
<g clip-path="url(#clip0_1_2996)">
<path d="M60.6691 38.6473C60.6691 37.9435 60.0985 37.3729 59.3947 37.3729H51.2364C50.5326 37.3729 49.962 37.9435 49.962 38.6473C49.962 39.3512 50.5326 39.9218 51.2364 39.9218H59.3947C60.0987 39.9218 60.6691 39.3512 60.6691 38.6473Z" fill="#04B158"/>
<path d="M100.058 38.6473C100.058 37.9435 99.4873 37.3729 98.7835 37.3729H90.6254C89.9215 37.3729 89.351 37.9435 89.351 38.6473C89.351 39.3512 89.9215 39.9218 90.6254 39.9218H98.7835C99.4873 39.9218 100.058 39.3512 100.058 38.6473Z" fill="#04B158"/>
<path d="M104.914 83.1666L99.6968 82.3624C99.5189 82.335 99.3874 82.1785 99.3911 81.9986C99.3917 81.975 99.3915 81.9515 99.3906 81.9281L99.2392 77.6063V62.9208C99.2392 62.2169 98.6686 61.6463 97.9648 61.6463C97.261 61.6463 96.6904 62.2169 96.6904 62.9208V76.3551H92.7112V51.8271H96.6904V56.9614C96.6904 57.6652 97.261 58.2358 97.9648 58.2358C98.6686 58.2358 99.2392 57.6652 99.2392 56.9614V51.0582L104.753 44.5836C105.707 43.4637 106.232 42.0369 106.232 40.566V35.6643C106.232 33.3681 104.364 31.5 102.068 31.5H87.3342C85.038 31.5 83.1699 33.3681 83.1699 35.6643V40.5662C83.1699 42.0372 83.6951 43.464 84.6489 44.5838L90.1625 51.0583V77.6066L90.0113 81.9282C90.0104 81.9517 90.0103 81.9751 90.0108 81.9986C90.0143 82.1787 89.883 82.335 89.7049 82.3625L84.4878 83.1668C81.1791 83.6767 78.7776 86.4769 78.7776 89.8247V106.275C78.7776 112.136 80.3602 116.264 80.4656 116.695C80.8267 117.788 81.8039 118.496 82.9551 118.499H82.9626C84.1106 118.499 85.0881 117.797 85.4543 116.708C86.5967 113.311 87.1758 109.772 87.1758 106.188V92.2569C87.1758 91.6734 87.5943 91.1856 88.1709 91.0967L90.1887 90.7857L90.5015 106.209C90.5029 109.781 91.0765 113.312 92.2063 116.701V116.701C92.5705 117.793 93.5496 118.499 94.7008 118.499C95.852 118.499 96.8311 117.793 97.1952 116.701C98.3251 113.312 98.8985 109.784 98.8999 106.216L99.2129 90.7857L101.231 91.0967C101.807 91.1856 102.226 91.6734 102.226 92.2569V106.232C102.226 112.108 103.8 116.172 103.93 116.701C104.295 117.793 105.274 118.499 106.425 118.499C108.409 118.499 108.918 116.684 108.931 116.667C110.054 113.296 110.624 109.785 110.624 106.231V89.8243C110.624 86.4765 108.223 83.6766 104.914 83.1666ZM85.7187 40.566V35.6643C85.7187 34.7735 86.4434 34.0488 87.3342 34.0488H102.068C102.958 34.0488 103.683 34.7735 103.683 35.6643V40.5662C103.683 41.4321 103.374 42.272 102.812 42.9313L97.4071 49.2786H91.9943L86.5891 42.9313C86.0278 42.272 85.7187 41.4319 85.7187 40.566ZM108.076 106.231C108.076 109.51 107.55 112.75 106.512 115.862L106.501 115.895C106.49 115.93 106.483 115.95 106.425 115.95C106.367 115.95 106.36 115.93 106.349 115.897L106.337 115.861C105.301 112.75 104.775 109.51 104.775 106.231V92.2564C104.775 90.4063 103.448 88.859 101.619 88.5771C99.4467 88.2512 99.4229 88.2177 99.0999 88.2177C97.7786 88.2177 96.694 89.2748 96.6671 90.6017L96.3512 106.177C96.3511 106.185 96.3511 106.194 96.3511 106.202C96.3511 109.501 95.8216 112.762 94.7771 115.895C94.7518 115.971 94.6498 115.971 94.6243 115.895C93.58 112.761 93.0503 109.498 93.0503 106.195C93.0503 106.187 93.0503 106.178 93.0502 106.17L92.7345 90.6017C92.7047 89.1334 91.387 88.0215 89.9309 88.2461L87.7828 88.5771C85.9542 88.859 84.6271 90.4063 84.6271 92.2564V106.188C84.6271 109.495 84.0927 112.761 83.0385 115.895C83.0136 115.969 82.9101 115.968 82.8861 115.895C82.7291 115.254 81.3264 111.629 81.3264 106.274V89.8242C81.3264 87.7431 82.8193 86.0024 84.8761 85.6854L90.0932 84.8811C91.5151 84.6619 92.5688 83.4215 92.5594 81.9869L92.6673 78.9038H96.7343L96.8423 81.9867C96.833 83.4215 97.8867 84.6619 99.3086 84.8811L104.526 85.6854C106.583 86.0024 108.075 87.743 108.075 89.8242V106.231H108.076Z" fill="#04B158"/>
<path d="M68.2388 81.8348L59.6915 80.5174C59.7342 79.6868 59.8795 76.9048 59.8824 76.7906C59.8827 76.7798 59.8841 76.7691 59.8841 76.758V51.0216L65.3668 44.5836C66.3205 43.4639 66.8458 42.037 66.8458 40.566V35.6643C66.8456 33.3681 64.9775 31.5 62.6813 31.5H47.9479C45.6517 31.5 43.7836 33.3681 43.7836 35.6643V40.5662C43.7836 42.0372 44.3088 43.464 45.2626 44.5838L50.7453 51.022C50.7457 56.0206 50.7445 76.6917 50.747 76.7908C50.7474 76.8019 50.7465 76.8129 50.747 76.8239L50.9378 80.5175L42.3906 81.8349C40.6433 82.1043 39.375 83.5829 39.375 85.351V89.449C39.375 90.1528 39.9456 90.7234 40.6494 90.7234C41.3532 90.7234 41.9238 90.1528 41.9238 89.449V85.351C41.9238 84.8497 42.2834 84.4303 42.7789 84.354L51.07 83.076L51.4303 90.0505C51.431 90.0646 51.432 90.0787 51.4332 90.0928C51.7098 93.347 52.3251 96.5833 53.2619 99.7122C53.8712 101.747 56.759 101.746 57.3677 99.7122C58.3045 96.5835 58.9196 93.347 59.1964 90.0928C59.1976 90.0787 59.1986 90.0646 59.1993 90.0505L59.5595 83.076L67.8507 84.354C68.3462 84.4303 68.7057 84.8497 68.7057 85.351V96.9415C68.7057 103.021 65.7608 108.771 60.8281 112.324L56.1832 115.67C55.6639 116.044 54.966 116.044 54.4462 115.67L49.8014 112.324C44.8687 108.771 41.9238 103.021 41.9238 96.9415V95.4083C41.9238 94.7045 41.3532 94.1339 40.6494 94.1339C39.9456 94.1339 39.375 94.7045 39.375 95.4083V96.9415C39.375 103.838 42.7158 110.362 48.3119 114.392L52.9565 117.738C54.3667 118.754 56.2622 118.755 57.6729 117.738L62.3178 114.392C67.9137 110.362 71.2545 103.838 71.2545 96.9415V85.351C71.2544 83.5828 69.9861 82.1041 68.2388 81.8348ZM53.294 51.8271H57.3351V75.4836H53.294V51.8271ZM46.3324 40.566V35.6643C46.3324 34.7735 47.0572 34.0488 47.9479 34.0488H62.6813C63.572 34.0488 64.2968 34.7735 64.2968 35.6643V40.5662C64.2968 41.4321 63.9877 42.272 63.4262 42.9313L58.021 49.2786H52.6082L47.203 42.9313C46.6417 42.2719 46.3324 41.4319 46.3324 40.566ZM56.6549 89.8974C56.4328 92.4948 55.9828 95.0802 55.3147 97.6025C54.6466 95.08 54.1966 92.4948 53.9745 89.8974L53.5427 81.5403C53.5426 81.5383 53.5426 81.536 53.5424 81.534L53.3616 78.0326H57.2678L57.087 81.534C57.0868 81.5362 57.0868 81.5383 57.0866 81.5403L56.6549 89.8974Z" fill="#04B158"/>
</g>
<defs>
<clipPath id="clip0_1_2996">
<rect width="87" height="87" fill="white" transform="translate(31.5 31.5)"/>
</clipPath>
</defs>
</svg>
