<svg width="32" height="32" viewBox="0 0 32 32" fill="none" xmlns="http://www.w3.org/2000/svg">
<path d="M23.1999 6.3999H8.7999C7.47671 6.3999 6.3999 7.69208 6.3999 9.27991V13.1199C6.3999 14.7077 7.47671 15.9999 8.7999 15.9999H10.3999V24.6399C10.3999 25.1708 10.7583 25.5999 11.1999 25.5999H20.7999C21.2423 25.5999 21.5999 25.1708 21.5999 24.6399V15.9999H23.1999C24.5231 15.9999 25.5999 14.7077 25.5999 13.1199V9.27991C25.5999 7.69203 24.5231 6.3999 23.1999 6.3999ZM19.9999 23.6799H11.9999V12.1599H19.9999V23.6799H19.9999ZM23.9999 13.1199C23.9999 13.6489 23.6415 14.0799 23.1999 14.0799H21.5999V12.1599H22.3999C22.8423 12.1599 23.1999 11.7298 23.1999 11.1999C23.1999 10.67 22.8423 10.2399 22.3999 10.2399H20.7999H11.1999H9.59989C9.15829 10.2399 8.7999 10.67 8.7999 11.1999C8.7999 11.7298 9.15829 12.1599 9.59989 12.1599H10.3999V14.0799H8.7999C8.35909 14.0799 7.99991 13.6488 7.99991 13.1199V9.27991C7.99991 8.75093 8.35913 8.31992 8.7999 8.31992H23.1999C23.6415 8.31992 23.9999 8.75098 23.9999 9.27991V13.1199Z" fill="#F58634"/>
<path d="M16.32 17.056V15.6256C16.5792 15.7063 16.8272 15.832 17.056 16C17.1032 16.0115 17.1528 16.0115 17.2 16C17.4208 16.0048 17.604 15.7946 17.608 15.5296C17.6064 15.4375 17.5784 15.3491 17.528 15.28C17.196 14.9162 16.7688 14.7021 16.32 14.6752V14.1664C16.316 13.985 16.1912 13.84 16.04 13.84C16.0368 13.84 16.0344 13.84 16.0312 13.84C15.8768 13.8342 15.748 13.9811 15.744 14.1664V14.6656C14.9632 14.6377 14.3072 15.3616 14.264 16.2976C14.264 17.4016 15.024 17.7088 15.744 17.9296V19.5424C15.408 19.4858 15.0904 19.3235 14.824 19.072C14.7576 19.0106 14.676 18.977 14.592 18.976C14.3776 18.9866 14.208 19.1978 14.208 19.4561C14.208 19.5511 14.2368 19.6433 14.288 19.7153C14.6824 20.1617 15.2016 20.4151 15.744 20.4257V20.9057C15.744 20.9095 15.744 20.9124 15.744 20.9163C15.7536 21.1015 15.8856 21.2427 16.04 21.2321C16.1912 21.2321 16.316 21.0872 16.32 20.9057V20.4257C17.36 20.3105 17.8 19.5713 17.832 18.7457C17.832 17.6224 17.04 17.2864 16.32 17.056ZM15.744 16.8448C15.376 16.72 15.112 16.6048 15.112 16.2304C15.112 15.856 15.36 15.5968 15.744 15.5488V16.8448ZM16.32 19.5424V18.1216V18.112C16.696 18.2465 16.976 18.496 16.976 18.8128C16.976 19.1296 16.792 19.456 16.32 19.5424Z" fill="#F58634"/>
<circle opacity="0.1" cx="16" cy="16" r="16" fill="#F58634"/>
</svg>
