<svg width="56" height="56" viewBox="0 0 56 56" fill="none" xmlns="http://www.w3.org/2000/svg">
<circle opacity="0.1" cx="28" cy="28" r="28" fill="#B18B04"/>
<g clip-path="url(#clip0_715_96)">
<path d="M43.3552 21.4388C42.4428 20.1393 40.9539 19.3665 39.366 19.3682C36.6787 19.3712 34.5008 21.549 34.4979 24.2364C34.4979 24.2867 34.5038 24.3348 34.5054 24.3846L31.644 25.3387C30.23 23.7268 27.9216 23.242 25.9786 24.1487L21.0666 19.2368C22.1928 16.7904 21.1227 13.8944 18.6764 12.7681C16.2301 11.6419 13.3341 12.712 12.2078 15.1583C11.0816 17.6046 12.1517 20.5007 14.598 21.627C16.0216 22.2824 17.6736 22.2136 19.0377 21.442L23.7696 26.1734C23.1439 27.2703 22.9756 28.5696 23.3012 29.7899L20.2553 31.8204C18.1543 30.1005 15.0568 30.4096 13.337 32.5106C11.617 34.6117 11.9261 37.7092 14.0271 39.429C16.1281 41.1489 19.2256 40.8399 20.9454 38.7388C21.9439 37.519 22.297 35.8945 21.8947 34.3703L24.9406 32.3398C26.2202 33.3863 27.9458 33.7064 29.5156 33.1885L31.0301 35.4305C29.095 37.3707 29.0992 40.5124 31.0395 42.4475C32.9798 44.3826 36.1214 44.3784 38.0565 42.4381C39.9916 40.4978 39.9874 37.3562 38.0471 35.4211C36.9195 34.2966 35.3207 33.7816 33.7487 34.0366L31.9751 31.3764C32.7018 30.3692 33.0055 29.1174 32.8211 27.8892L35.3871 27.034C36.9321 29.2344 39.9684 29.7655 42.1687 28.2205C44.3691 26.6754 44.9003 23.6391 43.3552 21.4388ZM16.6479 20.9909C14.5578 20.9886 12.8639 19.2947 12.8616 17.2046C12.8616 15.1134 14.5568 13.4182 16.6479 13.4182C18.7391 13.4182 20.4343 15.1134 20.4343 17.2046C20.4343 19.2957 18.7391 20.9909 16.6479 20.9909ZM19.9226 20.7962C20.128 20.6092 20.3172 20.4053 20.4884 20.1866L26.2588 25.9575C26.421 26.1197 26.421 26.3828 26.2588 26.545C26.2394 26.5644 26.2183 26.5817 26.1955 26.5969C26.0302 26.7052 25.8116 26.6826 25.6719 26.5428L19.9226 20.7962ZM17.1888 39.3818C15.0977 39.3818 13.4025 37.6866 13.4025 35.5954C13.4025 33.5043 15.0977 31.8091 17.1888 31.8091C19.28 31.8091 20.9752 33.5043 20.9752 35.5954C20.9728 37.6856 19.279 39.3794 17.1888 39.3818ZM21.4966 33.3355C21.361 33.0791 21.2028 32.8352 21.0239 32.6069L23.6992 30.8219C23.8348 31.0784 23.993 31.3222 24.1719 31.5505L21.4966 33.3355ZM28.609 31.8453L28.8795 32.2456C26.8525 32.7334 24.8138 31.4856 24.326 29.4586C24.126 28.6276 24.2139 27.7533 24.5755 26.9788L24.9076 27.3103C25.502 27.8853 26.4498 27.8694 27.0247 27.2751C27.5861 26.6947 27.5861 25.7736 27.0247 25.1932L26.8083 24.9769C28.7782 24.305 30.9198 25.3572 31.5916 27.327C31.7274 27.7251 31.7956 28.1431 31.7933 28.5636C31.7957 29.205 31.6333 29.8362 31.3217 30.3968L31.1702 30.1685C30.698 29.4672 29.7467 29.2815 29.0455 29.7538C28.357 30.2174 28.1634 31.1451 28.609 31.8453ZM34.4979 35.0545C36.588 35.0569 38.2818 36.7507 38.2842 38.8409C38.2842 40.932 36.589 42.6272 34.4979 42.6272C32.4067 42.6272 30.7115 40.932 30.7115 38.8409C30.7115 36.7497 32.4067 35.0545 34.4979 35.0545ZM32.6496 34.3384C32.3789 34.4508 32.1192 34.5876 31.8734 34.7473L29.5156 31.2552C29.3812 31.0469 29.4409 30.7692 29.6492 30.6348C29.8574 30.5003 30.1352 30.5601 30.2696 30.7684L32.6496 34.3384ZM32.5544 26.8387C32.4806 26.6411 32.394 26.4485 32.2953 26.2621L34.6634 25.4729C34.7161 25.6753 34.7816 25.874 34.8597 26.0679L32.5544 26.8387ZM39.366 28.0227C37.2749 28.0227 35.5797 26.3275 35.5797 24.2364C35.5797 22.1452 37.2749 20.45 39.366 20.45C41.4572 20.45 43.1524 22.1452 43.1524 24.2364C43.15 26.3266 41.4562 28.0204 39.366 28.0227Z" fill="#B18B04"/>
</g>
<defs>
<clipPath id="clip0_715_96">
<rect width="32.48" height="32.48" fill="white" transform="translate(11.7598 11.76)"/>
</clipPath>
</defs>
</svg>
