<svg width="32" height="32" viewBox="0 0 32 32" fill="none" xmlns="http://www.w3.org/2000/svg">
<path d="M24.6399 10.0922H21.1199V8.98452C21.1185 7.55776 20.1164 6.40152 18.8799 6.3999H13.1199C11.8834 6.40152 10.8813 7.55776 10.8799 8.98452V10.0922H7.3599C6.8297 10.0922 6.3999 10.5881 6.3999 11.1999V18.5845C6.40158 19.0522 6.6577 19.4684 7.0399 19.6243V24.4922C7.0399 25.104 7.4697 25.5999 7.9999 25.5999H23.9999C24.5301 25.5999 24.9599 25.104 24.9599 24.4922V19.6243C25.3421 19.4684 25.5982 19.0522 25.5999 18.5845V11.1999C25.5999 10.5881 25.1701 10.0922 24.6399 10.0922ZM11.5199 8.98452C11.5209 7.96544 12.2367 7.13956 13.1199 7.13836H18.8799C19.7631 7.13956 20.4789 7.96544 20.4799 8.98452V10.0922H19.8271L19.8399 8.98452C19.8389 8.37326 19.4097 7.87803 18.8799 7.87683H13.1081C12.5783 7.87803 12.1491 8.37326 12.1481 8.98452V8.98821L12.1567 10.0922H11.5199V8.98452ZM19.1999 8.97935L19.1871 10.0922H12.7967L12.7868 8.98452C12.7868 8.78061 12.9301 8.61529 13.1068 8.61529H18.8799C19.0549 8.61529 19.1975 8.77743 19.1999 8.97935ZM24.3199 24.4922C24.3199 24.6961 24.1766 24.8614 23.9999 24.8614H7.9999C7.82318 24.8614 7.6799 24.6961 7.6799 24.4922V19.6922H9.9199V20.7999C9.9199 21.0038 10.0632 21.1691 10.2399 21.1691H11.5199C11.6966 21.1691 11.8399 21.0038 11.8399 20.7999V19.6922H20.1599V20.7999C20.1599 21.0038 20.3032 21.1691 20.4799 21.1691H21.7599C21.9366 21.1691 22.0799 21.0038 22.0799 20.7999V19.6922H24.3199V24.4922ZM10.5599 20.4307V18.5845C10.5597 18.485 10.5953 18.3898 10.6581 18.3216C10.7163 18.2526 10.7965 18.2142 10.8799 18.2153C11.0566 18.2153 11.1999 18.3806 11.1999 18.5845V19.323V20.4307H10.5599ZM20.7999 20.4307V18.5845C20.7999 18.3806 20.9432 18.2153 21.1199 18.2153C21.2062 18.215 21.2888 18.2559 21.3481 18.3283C21.4074 18.3959 21.4405 18.4883 21.4399 18.5845V19.323V20.4307H20.7999ZM24.9599 18.5845C24.9599 18.7884 24.8166 18.9537 24.6399 18.9537H22.0799V18.5845C22.0776 17.9739 21.6491 17.4795 21.1199 17.4768C20.5897 17.4768 20.1599 17.9727 20.1599 18.5845V18.9537H11.8399V18.5845C11.8399 17.9727 11.4101 17.4768 10.8799 17.4768C10.3509 17.4802 9.92286 17.9742 9.9199 18.5845V18.9537H7.3599C7.18318 18.9537 7.0399 18.7884 7.0399 18.5845V11.1999C7.0399 10.996 7.18318 10.8307 7.3599 10.8307H24.6399C24.8166 10.8307 24.9599 10.996 24.9599 11.1999V18.5845Z" fill="#F58634"/>
<circle opacity="0.1" cx="16" cy="16" r="16" fill="#F58634"/>
</svg>
