<svg width="32" height="32" viewBox="0 0 32 32" fill="none" xmlns="http://www.w3.org/2000/svg">
<path d="M16.3096 18.124C16.8422 17.9855 17.2386 17.5049 17.2386 16.9292C17.2386 16.2461 16.6831 15.6905 15.9999 15.6905C15.6584 15.6905 15.3806 15.4128 15.3806 15.0712C15.3806 14.7296 15.6584 14.4518 15.9999 14.4518C16.3415 14.4518 16.6193 14.7296 16.6193 15.0712H17.2386C17.2386 14.4955 16.8422 14.0149 16.3096 13.8765V13.2131H15.6903V13.8765C15.1576 14.0149 14.7612 14.4955 14.7612 15.0712C14.7612 15.7543 15.3168 16.3099 15.9999 16.3099C16.3415 16.3099 16.6193 16.5877 16.6193 16.9292C16.6193 17.2708 16.3415 17.5486 15.9999 17.5486C15.6584 17.5486 15.3806 17.2708 15.3806 16.9292H14.7612C14.7612 17.5049 15.1576 17.9855 15.6903 18.124V18.7873H16.3096V18.124Z" fill="#F58634"/>
<path d="M15.9999 11.9744C13.7801 11.9744 11.9741 13.7804 11.9741 16.0001H12.5935C12.5935 14.122 14.1217 12.5937 15.9999 12.5937V11.9744Z" fill="#F58634"/>
<path d="M19.4064 16C19.4064 17.8782 17.8782 19.4064 16 19.4064V20.0258C18.2198 20.0258 20.0258 18.2198 20.0258 16H19.4064Z" fill="#F58634"/>
<path d="M12.7791 8.61865C11.8082 9.0426 10.9415 9.64616 10.2029 10.4123L10.6485 10.8424C11.3307 10.1351 12.1309 9.57772 13.0271 9.18598L12.7791 8.61865Z" fill="#F58634"/>
<path d="M14.0678 8.18188C13.8498 8.23546 13.6331 8.29863 13.4231 8.36955L13.6219 8.95639C13.8151 8.89104 14.0152 8.83282 14.2159 8.78297L14.0678 8.18188Z" fill="#F58634"/>
<path d="M15.3565 7.97388C15.145 7.9906 14.9282 8.01661 14.7124 8.05099L14.8103 8.6626C15.0097 8.63039 15.2097 8.60654 15.4048 8.59168L15.3565 7.97388Z" fill="#F58634"/>
<path d="M15.9998 7.01925C18.3989 7.01925 20.6539 7.95354 22.35 9.64964C22.4662 9.76576 22.6718 9.76576 22.7879 9.64964L23.432 9.00551V11.3547H21.0828L21.6932 10.7443C21.8143 10.6233 21.8143 10.4275 21.6932 10.3065C20.1724 8.78564 18.1505 7.94828 15.9998 7.94828V8.56763C17.8814 8.56763 19.6565 9.26223 21.0318 10.53L20.1164 11.4454C20.0278 11.534 20.0012 11.6672 20.0492 11.783C20.0972 11.8988 20.2102 11.9741 20.3353 11.9741H23.7417C23.9127 11.9741 24.0514 11.8356 24.0514 11.6644V8.25795C24.0514 8.13285 23.9758 8.0195 23.8603 7.97181C23.7439 7.9232 23.6113 7.95014 23.5228 8.03901L22.5656 8.99622C20.7803 7.31964 18.4608 6.3999 15.9998 6.3999C10.7066 6.3999 6.3999 10.7062 6.3999 15.9998H7.01925C7.01925 11.0481 11.0478 7.01925 15.9998 7.01925Z" fill="#F58634"/>
<path d="M21.7969 21.5879L21.3513 21.1577C20.6691 21.865 19.8689 22.4224 18.9727 22.8142L19.2207 23.3815C20.1915 22.9575 21.058 22.354 21.7969 21.5879Z" fill="#F58634"/>
<path d="M17.9322 23.818C18.1502 23.7644 18.367 23.7012 18.5769 23.6303L18.3781 23.0435C18.1849 23.1088 17.9848 23.167 17.7842 23.2169L17.9322 23.818Z" fill="#F58634"/>
<path d="M16.6435 24.0261C16.855 24.0094 17.0718 23.9834 17.2876 23.949L17.1898 23.3374C16.9904 23.3696 16.7903 23.3935 16.5952 23.4083L16.6435 24.0261Z" fill="#F58634"/>
<path d="M24.9806 16C24.9806 20.9517 20.9521 24.9806 16 24.9806C13.601 24.9806 11.3459 24.0463 9.64984 22.3502C9.53371 22.2341 9.32809 22.2341 9.21196 22.3502L8.56784 22.9943V20.6451H10.917L10.3067 21.2555C10.1856 21.3766 10.1856 21.5723 10.3067 21.6934C11.8275 23.2142 13.8493 24.0516 16 24.0516V23.4322C14.1185 23.4322 12.3434 22.7376 10.9681 21.4698L11.8835 20.5544C11.9721 20.4658 11.9987 20.3327 11.9507 20.2168C11.9027 20.101 11.7897 20.0258 11.6646 20.0258H8.25816C8.08722 20.0258 7.94849 20.1642 7.94849 20.3355V23.7419C7.94849 23.867 8.02405 23.9803 8.13956 24.028C8.25537 24.0763 8.38853 24.0494 8.4771 23.9608L9.43431 23.0036C11.2196 24.6802 13.5391 25.5999 16 25.5999C21.2933 25.5999 25.6 21.2936 25.6 16H24.9806Z" fill="#F58634"/>
<path d="M21.2643 15.9998C21.2643 13.0969 18.9027 10.7354 15.9998 10.7354C13.0969 10.7354 10.7354 13.0969 10.7354 15.9998C10.7354 18.9027 13.0969 21.2643 15.9998 21.2643C18.9027 21.2643 21.2643 18.9027 21.2643 15.9998ZM15.9998 20.645C13.4385 20.645 11.3547 18.5612 11.3547 15.9998C11.3547 13.4385 13.4385 11.3547 15.9998 11.3547C18.5612 11.3547 20.645 13.4385 20.645 15.9998C20.645 18.5612 18.5612 20.645 15.9998 20.645Z" fill="#F58634"/>
<circle opacity="0.1" cx="16" cy="16" r="16" fill="#F58634"/>
</svg>
