<svg width="272" height="40" viewBox="0 0 272 40" fill="none" xmlns="http://www.w3.org/2000/svg">
<g clip-path="url(#clip0_361_128)">
<path fill-rule="evenodd" clip-rule="evenodd" d="M5.72302 37.4088C5.72302 37.2299 5.72302 36.9617 5.81244 36.7828C6.08071 35.0838 5.99128 32.58 6.34897 30.881C6.70666 29.0031 6.52782 26.9464 6.70666 24.9791C6.79608 23.9955 6.97493 23.3695 6.97493 22.0282L7.24319 17.6465C7.42204 16.9311 7.51146 17.1994 7.60088 16.2157C7.6903 14.0696 7.42204 11.834 8.13741 10.3139C9.12106 10.5821 9.74701 11.1187 10.6412 11.5658L24.3228 18.8984C25.3065 19.4349 27.2738 20.5974 28.168 20.8657V21.3128C27.0949 21.4022 26.2007 22.207 25.3065 22.7435L15.3806 28.0195C15.1123 28.1089 14.9335 28.1983 14.7547 28.2877C13.0556 29.2714 12.6979 29.3608 12.6979 34.5473C12.6979 35.5309 12.6979 36.3357 13.8604 35.7992L13.9499 35.7098L29.1516 27.6618C29.5093 27.4829 29.5987 27.4829 29.9564 27.3041L31.8343 26.1416H31.9237L47.7514 17.7359C48.288 17.4676 48.8245 17.11 49.2716 16.8417C50.3447 16.2157 51.3283 15.7686 52.4014 15.2321C53.8321 14.3379 60.3599 10.6716 61.7907 10.3139C61.8801 11.0292 61.9695 10.8504 62.059 11.5658C62.1484 12.1023 62.2378 12.7283 62.3272 13.086C62.4167 14.159 62.2378 15.3215 62.3272 16.3946C62.4167 18.2724 62.9532 20.6868 62.8638 22.4753C62.7743 23.2801 62.5955 22.6541 62.8638 23.6378C62.9532 24.0849 62.8638 23.4589 63.0426 24.2637L63.132 25.0685C63.4003 26.9464 63.3109 26.7675 64.8311 27.3935L66.4407 28.1983C66.7089 28.2877 66.7089 28.2877 66.9772 28.3771C67.8714 28.8243 69.3022 29.7185 69.3022 27.93C69.3022 27.1252 68.6762 22.833 68.7656 20.6868C68.7656 20.4186 68.7656 19.9715 68.7656 19.7032C68.6762 18.6301 68.3185 18.809 68.4079 17.2888C68.5868 14.6956 67.782 12.5494 67.782 10.4033C67.782 8.70427 67.782 8.16774 67.5137 6.73698L66.9772 5.12739C66.9772 5.12739 66.9772 5.12739 66.9772 5.03796L65.6359 3.51779C64.3839 2.71299 62.5955 2.80241 61.433 3.33894L57.9455 5.12739L57.8561 5.21681C57.7667 5.21681 57.7667 5.21681 57.6773 5.30623L57.4984 5.39565C57.2302 5.5745 57.409 5.48507 57.1408 5.66392C57.0513 5.75334 56.7831 5.84276 56.6936 5.93218C56.3359 6.11103 56.2465 6.20045 55.7994 6.3793L48.8245 10.0456C46.7678 11.2081 44.6217 12.46 42.5649 13.4436H42.4755C40.7765 14.2484 36.0371 17.3782 34.9641 17.3782C34.4275 17.3782 28.9728 14.3379 28.0786 13.8908L7.77973 2.98125C6.88551 2.98125 5.90186 2.89183 5.09706 3.24952L4.47111 3.51779C3.48746 4.14374 2.59324 5.21681 2.4144 6.64756L1.52018 17.7359C1.52018 19.1667 1.16249 20.0609 1.16249 21.4916C1.16249 22.9224 1.07307 23.906 0.983644 25.3368C0.804799 27.0358 0.536533 27.3041 0.625955 29.2714C0.625955 32.0434 0.0894221 34.0107 0.0894221 36.8722L0 37.4088H5.72302Z" fill="#223C6A"/>
<path fill-rule="evenodd" clip-rule="evenodd" d="M74.4042 39.9893C74.4042 39.8998 74.4042 39.8998 74.3148 39.8104L72.9734 37.9326L70.2013 36.323L70.1119 36.2335L69.6648 35.9653C69.5754 35.9653 69.5754 35.9653 69.486 35.8758H69.3965L61.438 31.5836C61.438 31.4942 61.1697 31.4047 61.1697 31.3153L53.1217 27.2019C52.5852 27.0231 53.1217 26.9336 52.4063 27.2913L49.6343 28.7221C48.74 29.2586 47.4881 29.6163 47.041 30.5105C47.4881 31.4942 47.7564 31.3153 48.8295 31.9413L56.1621 35.8758C56.6092 36.0547 56.8775 36.2335 57.2351 36.4124C59.6495 37.5749 61.7062 38.8268 64.0312 39.9893H74.4042Z" fill="#F58634"/>
<path d="M95.4187 0.0214844C100.784 0.0214844 105.434 1.89935 109.19 5.7445C113.035 9.58965 114.913 14.1502 114.913 19.6049C114.913 24.9703 113.035 29.6202 109.19 33.4654C105.434 37.3105 100.784 39.1884 95.4187 39.1884C89.964 39.1884 85.314 37.3105 81.4689 33.4654C77.7131 29.6202 75.7458 24.9703 75.7458 19.6049C75.7458 14.1502 77.7131 9.58965 81.4689 5.7445C85.314 1.89935 89.964 0.0214844 95.4187 0.0214844ZM95.4187 5.65508C91.4842 5.65508 88.1755 6.99641 85.4929 9.67907C82.7208 12.4512 81.3794 15.7598 81.3794 19.6049C81.3794 23.4501 82.7208 26.7587 85.4929 29.5308C88.1755 32.2135 91.4842 33.5548 95.4187 33.5548C99.2639 33.5548 102.483 32.2135 105.255 29.5308C108.027 26.7587 109.369 23.4501 109.369 19.6049C109.369 15.7598 108.027 12.4512 105.255 9.67907C102.483 6.99641 99.2639 5.65508 95.4187 5.65508Z" fill="#223C6A"/>
<path d="M145.137 26.3058V1.17822H150.771V38.0201H147.104L127.253 12.2666V38.0201H121.619V1.17822H125.822L145.137 26.3058Z" fill="#223C6A"/>
<path d="M165.344 1.17822V38.0201H159.71V1.17822H165.344Z" fill="#223C6A"/>
<path d="M205.309 33.6442C201.463 37.3105 196.903 39.1884 191.627 39.1884C186.172 39.1884 181.522 37.3105 177.766 33.4654C173.921 29.6202 172.043 24.9703 172.043 19.6049C172.043 14.1502 173.921 9.58965 177.766 5.7445C181.522 1.89935 186.172 0.0214844 191.627 0.0214844C196.992 0.0214844 201.642 1.89935 205.487 5.7445L201.463 9.67907C198.781 6.99641 195.472 5.65508 191.627 5.65508C187.692 5.65508 184.473 6.99641 181.701 9.67907C178.929 12.4512 177.588 15.7598 177.588 19.6049C177.588 23.4501 178.929 26.7587 181.701 29.5308C184.473 32.2135 187.692 33.5548 191.627 33.5548C194.667 33.5548 197.35 32.75 199.675 31.051V22.377H189.57V16.8328H205.309V33.6442Z" fill="#223C6A"/>
<path d="M236.881 1.17822V6.72239H218.997V16.8271H232.41V22.3713H218.997V32.476H236.881V38.0201H213.453V1.17822H236.881Z" fill="#223C6A"/>
<path d="M249.219 23.5338H257.624C259.949 23.5338 261.917 22.729 263.526 21.0299C265.225 19.4203 266.03 17.4531 266.03 15.1281C266.03 12.8031 265.225 10.8358 263.526 9.22622C261.917 7.52719 259.949 6.72239 257.624 6.72239H249.219V23.5338ZM259.949 28.8991C259.234 29.0779 258.429 29.0779 257.624 29.0779H249.219V38.0201H243.675V1.17822H257.624C261.47 1.17822 264.778 2.51955 267.55 5.20222C270.233 7.97431 271.574 11.2829 271.574 15.1281C271.574 18.9732 270.233 22.2818 267.55 24.9645C266.745 25.7693 266.03 26.3953 265.136 26.9318L270.769 38.0201H264.51L259.949 28.8991Z" fill="#223C6A"/>
</g>
<defs>
<clipPath id="clip0_361_128">
<rect width="271.575" height="40" fill="white"/>
</clipPath>
</defs>
</svg>
