<svg width="56" height="56" viewBox="0 0 56 56" fill="none" xmlns="http://www.w3.org/2000/svg">
<circle opacity="0.1" cx="28" cy="28" r="28" fill="#B10404"/>
<path d="M36.6796 25.5151H35.6646V26.5301C34.8252 26.5301 34.1421 27.2132 34.1421 28.0526C34.1421 28.892 34.8252 29.5751 35.6646 29.5751H36.6796C36.9592 29.5751 37.1871 29.8025 37.1871 30.0826C37.1871 30.3628 36.9592 30.5901 36.6796 30.5901H35.1571V30.0826H34.1421V31.6051H35.6646V32.6201H36.6796V31.6051C37.519 31.6051 38.2021 30.922 38.2021 30.0826C38.2021 29.2432 37.519 28.5601 36.6796 28.5601H35.6646C35.385 28.5601 35.1571 28.3328 35.1571 28.0526C35.1571 27.7725 35.385 27.5451 35.6646 27.5451H37.1871V28.0526H38.2021V26.5301H36.6796V25.5151Z" fill="#B10404"/>
<path d="M42.2623 39.725H34.1423C33.9013 39.725 33.6759 39.7864 33.4729 39.8869C33.5734 39.6839 33.6348 39.4586 33.6348 39.2175V38.2025C33.6348 37.3631 32.9517 36.68 32.1123 36.68H23.9923C23.7513 36.68 23.5259 36.7414 23.3229 36.8419C23.4234 36.6389 23.4848 36.4136 23.4848 36.1725V35.1575C23.4848 34.3181 22.8017 33.635 21.9623 33.635H13.8423C13.0029 33.635 12.3198 34.3181 12.3198 35.1575V36.1725C12.3198 36.5638 12.4726 36.9175 12.7157 37.1875C12.4726 37.4575 12.3198 37.8112 12.3198 38.2025V39.2175C12.3198 39.6088 12.4726 39.9625 12.7157 40.2325C12.4726 40.5025 12.3198 40.8562 12.3198 41.2475V42.2625C12.3198 43.1019 13.0029 43.785 13.8423 43.785H21.9623C22.3536 43.785 22.7073 43.6323 22.9773 43.3892C23.2473 43.6328 23.601 43.785 23.9923 43.785H32.1123C32.5036 43.785 32.8573 43.6323 33.1273 43.3892C33.3973 43.6328 33.751 43.785 34.1423 43.785H42.2623C43.1017 43.785 43.7848 43.1019 43.7848 42.2625V41.2475C43.7848 40.4081 43.1017 39.725 42.2623 39.725ZM23.9923 37.695H24.4998V38.71H25.5148V37.695H26.5298V38.71H27.5448V37.695H28.5598V38.71H29.5748V37.695H30.5898V38.71H31.6048V37.695H32.1123C32.392 37.695 32.6198 37.9224 32.6198 38.2025V39.2175C32.6198 39.4976 32.392 39.725 32.1123 39.725H23.9923C23.7127 39.725 23.4848 39.4976 23.4848 39.2175V38.2025C23.4848 37.9224 23.7127 37.695 23.9923 37.695ZM13.8423 39.725C13.5627 39.725 13.3348 39.4976 13.3348 39.2175V38.2025C13.3348 37.9224 13.5627 37.695 13.8423 37.695H14.3498V38.71H15.3648V37.695H16.3798V38.71H17.3948V37.695H18.4098V38.71H19.4248V37.695H20.4398V38.71H21.4548V37.695H21.9623C22.242 37.695 22.4698 37.9224 22.4698 38.2025V39.2175C22.4698 39.4976 22.242 39.725 21.9623 39.725H13.8423ZM13.3348 35.1575C13.3348 34.8774 13.5627 34.65 13.8423 34.65H14.3498V35.665H15.3648V34.65H16.3798V35.665H17.3948V34.65H18.4098V35.665H19.4248V34.65H20.4398V35.665H21.4548V34.65H21.9623C22.242 34.65 22.4698 34.8774 22.4698 35.1575V36.1725C22.4698 36.4526 22.242 36.68 21.9623 36.68H13.8423C13.5627 36.68 13.3348 36.4526 13.3348 36.1725V35.1575ZM21.9623 42.77H13.8423C13.5627 42.77 13.3348 42.5426 13.3348 42.2625V41.2475C13.3348 40.9674 13.5627 40.74 13.8423 40.74H14.3498V41.755H15.3648V40.74H16.3798V41.755H17.3948V40.74H18.4098V41.755H19.4248V40.74H20.4398V41.755H21.4548V40.74H21.9623C22.242 40.74 22.4698 40.9674 22.4698 41.2475V42.2625C22.4698 42.5426 22.242 42.77 21.9623 42.77ZM32.1123 42.77H23.9923C23.7127 42.77 23.4848 42.5426 23.4848 42.2625V41.2475C23.4848 40.9674 23.7127 40.74 23.9923 40.74H24.4998V41.755H25.5148V40.74H26.5298V41.755H27.5448V40.74H28.5598V41.755H29.5748V40.74H30.5898V41.755H31.6048V40.74H32.1123C32.392 40.74 32.6198 40.9674 32.6198 41.2475V42.2625C32.6198 42.5426 32.392 42.77 32.1123 42.77ZM42.7698 42.2625C42.7698 42.5426 42.542 42.77 42.2623 42.77H34.1423C33.8627 42.77 33.6348 42.5426 33.6348 42.2625V41.2475C33.6348 40.9674 33.8627 40.74 34.1423 40.74H34.6498V41.755H35.6648V40.74H36.6798V41.755H37.6948V40.74H38.7098V41.755H39.7248V40.74H40.7398V41.755H41.7548V40.74H42.2623C42.542 40.74 42.7698 40.9674 42.7698 41.2475V42.2625Z" fill="#B10404"/>
<path d="M43.7848 19.4251V13.8426H38.2023V14.8576H42.0522L37.1229 19.7869L34.0637 17.7473L27.5448 24.8091V30.5901H20.4398V28.5601V28.0526V26.5301H22.9773C25.4955 26.5301 27.5448 24.4813 27.5448 21.9626V21.4551H23.9923C22.5581 21.4551 21.2777 22.1209 20.4398 23.1582V19.4251H22.9773C25.4955 19.4251 27.5448 17.3763 27.5448 14.8576V14.3501H23.9923C22.5185 14.3501 21.2092 15.055 20.3733 16.1415C20.0156 13.9776 18.1363 12.3201 15.8723 12.3201H12.3198V12.8276C12.3198 15.3463 14.3691 17.3951 16.8873 17.3951H19.4248V18.9176V19.4251V25.1882C18.5869 24.1509 17.3065 23.4851 15.8723 23.4851H12.3198V23.9926C12.3198 26.5113 14.3691 28.5601 16.8873 28.5601H19.4248V30.5901H12.3198V31.6051H31.2059C32.1321 33.4097 34.0078 34.6501 36.1723 34.6501C38.3368 34.6501 40.2125 33.4097 41.1387 31.6051H43.7848V30.5901H41.5386C41.6762 30.1054 41.7548 29.5959 41.7548 29.0676C41.7548 27.877 41.3772 26.7752 40.7398 25.8678V17.6052L42.7698 15.5752V19.4251H43.7848ZM23.9923 22.4701H26.4938C26.2466 24.1895 24.7642 25.5151 22.9773 25.5151H20.4759C20.723 23.7957 22.2054 22.4701 23.9923 22.4701ZM23.9923 15.3651H26.4938C26.2466 17.0845 24.7642 18.4101 22.9773 18.4101H20.4759C20.723 16.6907 22.2054 15.3651 23.9923 15.3651ZM16.8873 16.3801C15.1004 16.3801 13.618 15.0545 13.3709 13.3351H15.8723C17.6592 13.3351 19.1416 14.6607 19.3888 16.3801H16.8873ZM16.8873 27.5451C15.1004 27.5451 13.618 26.2195 13.3709 24.5001H15.8723C17.6592 24.5001 19.1416 25.8257 19.3888 27.5451H16.8873ZM36.1723 23.4851C35.644 23.4851 35.1345 23.5637 34.6498 23.7013V19.3581L36.6798 20.7116V23.5104C36.5123 23.4957 36.3439 23.4851 36.1723 23.4851ZM33.6348 24.1012C32.8228 24.5178 32.126 25.1258 31.6048 25.8678V21.9073L33.6348 19.7083V24.1012ZM28.5598 30.5901V25.206L30.5898 23.007V29.0676C30.5898 29.5959 30.6685 30.1054 30.806 30.5901H28.5598ZM36.1723 33.6351C33.6541 33.6351 31.6048 31.5863 31.6048 29.0676C31.6048 26.5488 33.6541 24.5001 36.1723 24.5001C38.6905 24.5001 40.7398 26.5488 40.7398 29.0676C40.7398 31.5863 38.6905 33.6351 36.1723 33.6351ZM39.7248 24.7645C39.1371 24.2788 38.4474 23.9149 37.6948 23.7013V20.6502L39.7248 18.6202V24.7645Z" fill="#B10404"/>
</svg>
