<svg width="56" height="56" viewBox="0 0 56 56" fill="none" xmlns="http://www.w3.org/2000/svg">
<circle opacity="0.16" cx="28" cy="28" r="28" fill="#0415B1"/>
<path d="M23.5372 31.6576V26.0751C23.5372 25.9405 23.4837 25.8114 23.3885 25.7163C23.2934 25.6211 23.1643 25.5676 23.0297 25.5676H20.9997C20.8651 25.5676 20.736 25.6211 20.6408 25.7163C20.5457 25.8114 20.4922 25.9405 20.4922 26.0751V31.6576H21.5072V26.5826H22.5222V31.6576H23.5372Z" fill="#0415B1"/>
<path d="M31.6573 33.6877V26.5827C31.6573 26.4481 31.6038 26.319 31.5087 26.2238C31.4135 26.1287 31.2844 26.0752 31.1498 26.0752H29.1198C28.9852 26.0752 28.8561 26.1287 28.7609 26.2238C28.6658 26.319 28.6123 26.4481 28.6123 26.5827V33.6877H29.6273V27.0902H30.6423V33.6877H31.6573Z" fill="#0415B1"/>
<path d="M27.5972 33.6877V24.5527C27.5972 24.4181 27.5438 24.289 27.4486 24.1938C27.3534 24.0986 27.2243 24.0452 27.0897 24.0452H25.0597C24.9251 24.0452 24.7961 24.0986 24.7009 24.1938C24.6057 24.289 24.5522 24.4181 24.5522 24.5527V32.6727H25.5672V25.0602H26.5822V33.6877H27.5972Z" fill="#0415B1"/>
<path d="M35.7174 29.6277V24.5527C35.7174 24.4181 35.6639 24.289 35.5687 24.1938C35.4735 24.0986 35.3445 24.0452 35.2099 24.0452H33.1799C33.0453 24.0452 32.9162 24.0986 32.821 24.1938C32.7258 24.289 32.6724 24.4181 32.6724 24.5527V30.1352H33.6874V25.0602H34.7024V29.6277H35.7174Z" fill="#0415B1"/>
<path d="M39.7774 29.1202V21.5077C39.7774 21.3731 39.724 21.2441 39.6288 21.1489C39.5336 21.0537 39.4045 21.0002 39.2699 21.0002H37.2399C37.1053 21.0002 36.9762 21.0537 36.8811 21.1489C36.7859 21.2441 36.7324 21.3731 36.7324 21.5077V29.1202H37.7474V22.0152H38.7624V29.1202H39.7774Z" fill="#0415B1"/>
<path d="M20.6409 24.404C20.736 24.4991 20.8651 24.5526 20.9997 24.5526C21.1343 24.5526 21.2634 24.4991 21.3586 24.404L25.5479 20.2147L29.7575 24.8921C29.8036 24.9433 29.8596 24.9846 29.9222 25.0135C29.9848 25.0423 30.0526 25.0581 30.1214 25.0599C30.1259 25.0601 30.1303 25.0601 30.1347 25.0601C30.2694 25.0601 30.3984 25.0067 30.4936 24.9115L37.2397 18.1654V19.4776C37.2397 19.6122 37.2932 19.7413 37.3884 19.8365C37.4836 19.9317 37.6126 19.9851 37.7472 19.9851H39.7772C39.9118 19.9851 40.0409 19.9317 40.1361 19.8365C40.2313 19.7413 40.2847 19.6122 40.2847 19.4776V13.3876C40.2847 13.253 40.2313 13.1239 40.1361 13.0288C40.0409 12.9336 39.9118 12.8801 39.7772 12.8801H33.6872C33.5526 12.8801 33.4236 12.9336 33.3284 13.0288C33.2332 13.1239 33.1797 13.253 33.1797 13.3876V15.4176C33.1797 15.5522 33.2332 15.6813 33.3284 15.7765C33.4236 15.8717 33.5526 15.9251 33.6872 15.9251H34.9995L30.1541 20.7705L25.9445 16.0931C25.8984 16.0419 25.8423 16.0006 25.7798 15.9718C25.7172 15.9429 25.6494 15.9271 25.5806 15.9253C25.5117 15.9235 25.4432 15.9357 25.3792 15.9613C25.3152 15.9868 25.2571 16.0251 25.2084 16.0738L19.1184 22.1638C19.0232 22.259 18.9697 22.388 18.9697 22.5226C18.9697 22.6572 19.0232 22.7863 19.1184 22.8815L20.6409 24.404ZM25.5479 17.1697L29.7575 21.8471C29.8036 21.8983 29.8596 21.9396 29.9222 21.9685C29.9848 21.9973 30.0525 22.0131 30.1214 22.0149C30.1903 22.0168 30.2588 22.0045 30.3228 21.979C30.3868 21.9535 30.4449 21.9152 30.4936 21.8665L36.5836 15.7765C36.6546 15.7055 36.7029 15.6151 36.7225 15.5166C36.7421 15.4182 36.732 15.3161 36.6936 15.2234C36.6552 15.1307 36.5901 15.0514 36.5067 14.9957C36.4232 14.9399 36.3251 14.9101 36.2247 14.9101H34.1947V13.8951H39.2697V18.9701H38.2547V16.9401C38.2547 16.8398 38.225 16.7416 38.1692 16.6582C38.1134 16.5747 38.0342 16.5097 37.9414 16.4712C37.8487 16.4328 37.7467 16.4228 37.6482 16.4424C37.5498 16.462 37.4593 16.5103 37.3884 16.5813L30.1541 23.8155L25.9445 19.1381C25.8984 19.0869 25.8423 19.0456 25.7798 19.0168C25.7172 18.9879 25.6494 18.9721 25.5806 18.9703C25.5761 18.9702 25.5717 18.9701 25.5672 18.9701C25.4326 18.9701 25.3035 19.0236 25.2084 19.1188L20.9997 23.3274L20.1949 22.5226L25.5479 17.1697Z" fill="#0415B1"/>
<path d="M17.4474 42.8228V41.8078H18.9699C19.1045 41.8078 19.2336 41.7543 19.3287 41.6591C19.4239 41.5639 19.4774 41.4349 19.4774 41.3003V39.9706C21.9007 42.195 25.0895 43.3976 28.3782 43.3272C31.6669 43.2569 34.8013 41.9192 37.1273 39.5932L42.6738 34.0469C43.0091 33.7116 43.2103 33.2652 43.2393 32.7919C43.2683 32.3185 43.1232 31.8509 42.8314 31.4771C42.5395 31.1034 42.121 30.8492 41.6548 30.7626C41.1885 30.676 40.7067 30.7629 40.3001 31.007C40.1268 30.7388 39.8912 30.5166 39.6134 30.3593C39.3356 30.202 39.0239 30.1143 38.7048 30.1036C38.3857 30.093 38.0688 30.1598 37.7812 30.2982C37.4935 30.4367 37.2436 30.6427 37.0529 30.8987L36.8377 31.1874C36.7277 31.103 36.6099 31.0292 36.4859 30.9672C36.2234 30.8359 35.937 30.759 35.6441 30.7412C35.3511 30.7234 35.0575 30.765 34.781 30.8634C34.5045 30.9619 34.2507 31.1153 34.035 31.3143C33.8192 31.5133 33.6459 31.7539 33.5254 32.0215L32.2461 34.8645C31.9781 34.7576 31.6922 34.7027 31.4036 34.7028H25.2701L24.4038 33.8364C23.768 33.2025 22.9419 32.7945 22.052 32.6752C21.1621 32.5559 20.2577 32.7317 19.4774 33.1758V32.6728C19.4774 32.5382 19.4239 32.4091 19.3287 32.3139C19.2336 32.2188 19.1045 32.1653 18.9699 32.1653H17.4474V31.6578C17.4474 31.5232 17.3939 31.3941 17.2987 31.2989C17.2036 31.2038 17.0745 31.1503 16.9399 31.1503H12.8799V32.1653H16.4324V42.3153H12.8799V43.3303H16.9399C17.0745 43.3303 17.2036 43.2768 17.2987 43.1816C17.3939 43.0864 17.4474 42.9574 17.4474 42.8228ZM39.1346 31.2549C39.308 31.3592 39.444 31.5155 39.5233 31.7016L35.4966 35.7283C34.9576 36.2681 34.3491 36.7336 33.6872 37.1126L37.8667 31.5053C38.009 31.3133 38.2178 31.1812 38.4522 31.1349C38.6867 31.0886 38.93 31.1314 39.1346 31.2549ZM34.451 32.438C34.5153 32.2951 34.6079 32.1666 34.7231 32.0603C34.8383 31.9541 34.9738 31.8722 35.1215 31.8196C35.2692 31.767 35.4259 31.7448 35.5824 31.7543C35.7388 31.7638 35.8918 31.8049 36.032 31.875C36.1024 31.9103 36.169 31.9527 36.2309 32.0015L33.3741 35.8342C33.2942 35.6978 33.2005 35.57 33.0943 35.4528L34.451 32.438ZM23.686 34.5541L24.701 35.5691C24.7962 35.6643 24.9253 35.7178 25.0599 35.7178H31.4036C31.7401 35.7178 32.0628 35.8514 32.3008 36.0894C32.5387 36.3273 32.6724 36.65 32.6724 36.9865C32.6724 37.323 32.5387 37.6457 32.3008 37.8837C32.0628 38.1216 31.7401 38.2553 31.4036 38.2553H25.0599V39.2703H31.4036C31.7177 39.2704 32.0283 39.2055 32.3161 39.0798C32.6038 38.9541 32.8625 38.7702 33.0758 38.5397C34.2504 38.0566 35.3172 37.3449 36.2144 36.446L40.6437 32.0167C40.8177 31.8427 41.0538 31.7449 41.2999 31.7449C41.5461 31.7449 41.7821 31.8427 41.9562 32.0167C42.1302 32.1908 42.228 32.4268 42.228 32.673C42.228 32.9191 42.1302 33.1551 41.9561 33.3292L36.4096 38.8755C34.207 41.078 31.2197 42.3153 28.1048 42.3153C24.99 42.3152 22.0027 41.0778 19.8001 38.8753L19.4774 38.5525V34.416C20.0658 33.9015 20.8277 33.6296 21.6089 33.6552C22.3902 33.6808 23.1326 34.0021 23.686 34.5541ZM18.4624 33.1803V40.7928H17.4474V33.1803H18.4624Z" fill="#0415B1"/>
</svg>
