<svg width="56" height="56" viewBox="0 0 56 56" fill="none" xmlns="http://www.w3.org/2000/svg">
<circle opacity="0.1" cx="28" cy="28" r="28" fill="#0487B1"/>
<g clip-path="url(#clip0_715_131)">
<path d="M22.6497 14.4284C22.6497 14.1657 22.4367 13.9526 22.1739 13.9526H19.1281C18.8654 13.9526 18.6523 14.1657 18.6523 14.4284C18.6523 14.6912 18.8654 14.9042 19.1281 14.9042H22.1739C22.4367 14.9042 22.6497 14.6912 22.6497 14.4284Z" fill="#0487B1"/>
<path d="M37.3547 14.4284C37.3547 14.1657 37.1417 13.9526 36.8789 13.9526H33.8332C33.5704 13.9526 33.3574 14.1657 33.3574 14.4284C33.3574 14.6912 33.5704 14.9042 33.8332 14.9042H36.8789C37.1417 14.9042 37.3547 14.6912 37.3547 14.4284Z" fill="#0487B1"/>
<path d="M39.1672 31.0489L37.2195 30.7486C37.1531 30.7384 37.104 30.68 37.1054 30.6128C37.1056 30.604 37.1055 30.5952 37.1052 30.5865L37.0487 28.973V23.4904C37.0487 23.2277 36.8357 23.0146 36.5729 23.0146C36.3101 23.0146 36.0971 23.2277 36.0971 23.4904V28.5059H34.6115V19.3488H36.0971V21.2656C36.0971 21.5284 36.3101 21.7414 36.5729 21.7414C36.8357 21.7414 37.0487 21.5284 37.0487 21.2656V19.0617L39.1071 16.6446C39.4632 16.2265 39.6593 15.6938 39.6593 15.1447V13.3147C39.6593 12.4574 38.9618 11.76 38.1046 11.76H32.6041C31.7469 11.76 31.0495 12.4574 31.0495 13.3147V15.1447C31.0495 15.6939 31.2455 16.2266 31.6016 16.6446L33.66 19.0618V28.9731L33.6036 30.5865C33.6033 30.5953 33.6032 30.6041 33.6034 30.6128C33.6047 30.6801 33.5557 30.7384 33.4892 30.7487L31.5415 31.0489C30.3062 31.2393 29.4097 32.2847 29.4097 33.5345V39.676C29.4097 41.8641 30.0005 43.4053 30.0399 43.566C30.1747 43.9741 30.5395 44.2385 30.9693 44.2397H30.9721C31.4007 44.2397 31.7656 43.9774 31.9023 43.571C32.3288 42.3029 32.545 40.9816 32.545 39.6437V34.4426C32.545 34.2248 32.7013 34.0426 32.9165 34.0094L33.6698 33.8934L33.7866 39.6513C33.7871 40.9851 34.0013 42.303 34.4231 43.5685V43.5685C34.559 43.9762 34.9245 44.2397 35.3543 44.2397C35.7841 44.2397 36.1496 43.9762 36.2856 43.5685C36.7074 42.3031 36.9215 40.986 36.922 39.6539L37.0389 33.8934L37.7922 34.0094C38.0075 34.0426 38.1637 34.2248 38.1637 34.4426V39.6598C38.1637 41.8536 38.7514 43.3707 38.8001 43.5684C38.936 43.9762 39.3015 44.2396 39.7313 44.2396C40.4722 44.2396 40.6621 43.5621 40.6668 43.5558C41.0863 42.2972 41.2991 40.9864 41.2991 39.6596V33.5344C41.2991 32.2846 40.4025 31.2393 39.1672 31.0489ZM32.001 15.1447V13.3147C32.001 12.9821 32.2716 12.7116 32.6041 12.7116H38.1046C38.4371 12.7116 38.7077 12.9821 38.7077 13.3147V15.1447C38.7077 15.468 38.5922 15.7816 38.3827 16.0277L36.3647 18.3973H34.3439L32.326 16.0277C32.1164 15.7816 32.001 15.4679 32.001 15.1447ZM40.3476 39.6596C40.3476 40.8838 40.1513 42.0935 39.764 43.2551L39.7599 43.2675C39.7555 43.2807 39.753 43.288 39.7314 43.288C39.7097 43.288 39.7073 43.2807 39.7031 43.2681L39.6987 43.2546C39.3116 42.0934 39.1153 40.8839 39.1153 39.6598V34.4424C39.1153 33.7517 38.6198 33.174 37.9371 33.0688C37.1261 32.9471 37.1173 32.9346 36.9967 32.9346C36.5034 32.9346 36.0985 33.3293 36.0884 33.8246L35.9705 39.6393C35.9704 39.6424 35.9704 39.6457 35.9704 39.6489C35.9704 40.8802 35.7728 42.0977 35.3828 43.2674C35.3734 43.2959 35.3353 43.2959 35.3258 43.2674C34.9359 42.0976 34.7382 40.8793 34.7382 39.6463C34.7382 39.6431 34.7382 39.6398 34.7381 39.6367L34.6202 33.8246C34.6091 33.2765 34.1172 32.8614 33.5736 32.9452L32.7716 33.0688C32.0889 33.174 31.5935 33.7517 31.5935 34.4424V39.6435C31.5935 40.8781 31.394 42.0974 31.0004 43.2675C30.9911 43.2952 30.9525 43.2948 30.9435 43.2676C30.8849 43.0283 30.3612 41.6749 30.3612 39.6758V33.5344C30.3612 32.7574 30.9186 32.1076 31.6864 31.9892L33.6342 31.689C34.165 31.6071 34.5584 31.144 34.5549 30.6084L34.5952 29.4574H36.1135L36.1538 30.6084C36.1503 31.144 36.5437 31.6071 37.0746 31.689L39.0223 31.9892C39.7902 32.1076 40.3475 32.7574 40.3475 33.5344V39.6596H40.3476Z" fill="#0487B1"/>
<path d="M25.4755 30.5517L22.2845 30.0598C22.3005 29.7497 22.3547 28.7111 22.3558 28.6685C22.3559 28.6645 22.3564 28.6605 22.3564 28.6563V19.0481L24.4033 16.6446C24.7594 16.2265 24.9555 15.6938 24.9555 15.1447V13.3147C24.9554 12.4574 24.258 11.76 23.4007 11.76H17.9003C17.043 11.76 16.3456 12.4574 16.3456 13.3147V15.1447C16.3456 15.6939 16.5417 16.2266 16.8978 16.6446L18.9446 19.0482C18.9448 20.9144 18.9443 28.6316 18.9453 28.6686C18.9454 28.6727 18.9451 28.6768 18.9453 28.6809L19.0165 30.0599L15.8255 30.5517C15.1732 30.6523 14.6997 31.2043 14.6997 31.8644V33.3943C14.6997 33.657 14.9127 33.8701 15.1755 33.8701C15.4382 33.8701 15.6513 33.657 15.6513 33.3943V31.8644C15.6513 31.6772 15.7855 31.5207 15.9705 31.4922L19.0659 31.0151L19.2003 33.6189C19.2006 33.6241 19.201 33.6294 19.2014 33.6347C19.3047 34.8495 19.5344 36.0578 19.8841 37.2259C20.1116 37.9856 21.1897 37.9851 21.417 37.2259C21.7667 36.0578 21.9963 34.8495 22.0997 33.6347C22.1001 33.6294 22.1005 33.6241 22.1008 33.6189L22.2353 31.0151L25.3306 31.4922C25.5156 31.5207 25.6498 31.6772 25.6498 31.8644V36.1915C25.6498 38.461 24.5504 40.608 22.7089 41.9344L20.9748 43.1835C20.7809 43.3231 20.5203 43.3232 20.3263 43.1835L18.5922 41.9344C16.7507 40.608 15.6513 38.461 15.6513 36.1915V35.6191C15.6513 35.3563 15.4382 35.1433 15.1755 35.1433C14.9127 35.1433 14.6997 35.3563 14.6997 35.6191V36.1915C14.6997 38.7662 15.947 41.2017 18.0361 42.7065L19.7701 43.9556C20.2966 44.3348 21.0043 44.335 21.5309 43.9556L23.265 42.7065C25.3542 41.2017 26.6014 38.7662 26.6014 36.1915V31.8644C26.6013 31.2042 26.1278 30.6522 25.4755 30.5517ZM19.8961 19.3488H21.4048V28.1806H19.8961V19.3488ZM17.2972 15.1447V13.3147C17.2972 12.9821 17.5677 12.7116 17.9003 12.7116H23.4007C23.7333 12.7116 24.0038 12.9821 24.0038 13.3147V15.1447C24.0038 15.468 23.8884 15.7816 23.6788 16.0277L21.6609 18.3973H19.6401L17.6221 16.0277C17.4126 15.7815 17.2972 15.4679 17.2972 15.1447ZM21.1509 33.5617C21.0679 34.5314 20.9 35.4966 20.6505 36.4383C20.4011 35.4965 20.2331 34.5314 20.1502 33.5617L19.989 30.4417C19.9889 30.441 19.9889 30.4401 19.9889 30.4394L19.9214 29.1322H21.3797L21.3122 30.4394C21.3121 30.4402 21.3121 30.441 21.312 30.4417L21.1509 33.5617Z" fill="#0487B1"/>
</g>
<defs>
<clipPath id="clip0_715_131">
<rect width="32.48" height="32.48" fill="white" transform="translate(11.7598 11.76)"/>
</clipPath>
</defs>
</svg>
